<svg xmlns="http://www.w3.org/2000/svg" xmlns:xlink="http://www.w3.org/1999/xlink" width="255" height="452" version="1.1" viewBox="0 0 255 452"><title>Group 4</title><desc>Created with Sketch.</desc><g id="Page-1" fill="none" fill-rule="evenodd" stroke="none" stroke-width="1"><g id="Group-3" fill="#9F9E97" transform="translate(-28.000000, -100.000000)"><g id="latest-news"><g id="Group-4" transform="translate(28.000000, 100.000000)"><g id="lates-news-item"><rect id="Rectangle-2" width="221" height="20" x="0" y="72"/><rect id="Rectangle-2" width="252" height="20" x="0" y="48"/><rect id="Rectangle-2" width="243" height="20" x="0" y="24"/><rect id="Rectangle-2" width="255" height="20" x="0" y="0"/></g><g id="lates-news-item" transform="translate(0.000000, 120.000000)"><rect id="Rectangle-2" width="221" height="20" x="0" y="72"/><rect id="Rectangle-2" width="252" height="20" x="0" y="48"/><rect id="Rectangle-2" width="243" height="20" x="0" y="24"/><rect id="Rectangle-2" width="255" height="20" x="0" y="0"/></g><g id="lates-news-item" transform="translate(0.000000, 240.000000)"><rect id="Rectangle-2" width="221" height="20" x="0" y="72"/><rect id="Rectangle-2" width="252" height="20" x="0" y="48"/><rect id="Rectangle-2" width="243" height="20" x="0" y="24"/><rect id="Rectangle-2" width="255" height="20" x="0" y="0"/></g><g id="lates-news-item" transform="translate(0.000000, 360.000000)"><rect id="Rectangle-2" width="221" height="20" x="0" y="72"/><rect id="Rectangle-2" width="252" height="20" x="0" y="48"/><rect id="Rectangle-2" width="243" height="20" x="0" y="24"/><rect id="Rectangle-2" width="255" height="20" x="0" y="0"/></g></g></g></g></g></svg>